<svg width="298" height="298" viewBox="0 0 298 298" fill="none" xmlns="http://www.w3.org/2000/svg">
<rect width="298" height="298" fill="white"/>
<rect x="63.5" y="87.4328" width="171" height="123.134" rx="18.5" fill="white" stroke="#F5F5F5" stroke-width="7"/>
<path d="M214.714 201.126H82.7143C77.1914 201.126 72.7143 196.649 72.7143 191.126V147.923C72.7143 145.277 73.7631 142.739 75.6309 140.865L105.158 111.234C109.066 107.313 115.417 107.313 119.325 111.234L169.12 161.204C173.028 165.125 179.379 165.125 183.287 161.204L186.009 158.472C189.917 154.55 196.268 154.55 200.176 158.472L221.798 180.17C223.666 182.044 224.714 184.582 224.714 187.228V191.126C224.714 196.649 220.237 201.126 214.714 201.126Z" fill="#F5F5F5"/>
<circle cx="202" cy="120" r="16" fill="#F5F5F5"/>
<path d="M201.37 129.892C202.303 131.057 204.152 130.76 204.671 129.361L210.355 114.058C210.928 112.517 209.423 111.017 207.882 111.592L192.582 117.305C191.183 117.827 190.89 119.675 192.059 120.604L195.022 122.96C195.482 123.326 196.134 123.332 196.6 122.973L203.772 117.462C203.977 117.304 204.268 117.323 204.451 117.506C204.634 117.689 204.653 117.979 204.495 118.184L198.98 125.347C198.62 125.814 198.627 126.466 198.995 126.926L201.37 129.892Z" fill="white"/>
</svg>
