<svg width="72" height="72" viewBox="0 0 72 72" fill="none" xmlns="http://www.w3.org/2000/svg">
<g clip-path="url(#clip0_51_67)">
<path d="M60 20.444C56.9402 15.8395 52.5912 12.2506 47.5029 10.1314C42.4146 8.01213 36.8156 7.45764 31.4139 8.53803C26.0122 9.61841 21.0505 12.2852 17.1561 16.201C13.2617 20.1169 10.6095 25.106 9.53507 30.5375C8.46061 35.969 9.01207 41.5988 11.1197 46.7151C13.2273 51.8315 16.7965 56.2045 21.3758 59.2812C25.9552 62.3578 31.339 64 36.8465 64" stroke="#C7C7C7" stroke-width="14" stroke-linecap="round"/>
<path d="M66.0521 32.1676C67.5297 32.4386 68.8984 31.3563 68.9973 29.8787L69.0036 29.7343L69.1997 10.9373C69.2219 8.81174 66.7498 7.62992 65.1097 8.98208L46.4234 24.3874C44.8345 25.6973 45.4308 28.2269 47.3705 28.7325L47.5627 28.7752L66.0521 32.1676Z" fill="#C7C7C7" stroke="#C7C7C7"/>
</g>
<defs>
<clipPath id="clip0_51_67">
<rect width="72" height="72" fill="white" transform="matrix(-1 0 0 1 72 0)"/>
</clipPath>
</defs>
</svg>
