<svg width="60" height="60" viewBox="0 0 60 60" fill="none" xmlns="http://www.w3.org/2000/svg">
<path d="M30 0C46.5685 0 60 13.4315 60 30C60 46.5685 46.5685 60 30 60C13.4315 60 0 46.5685 0 30C0 13.4315 13.4315 0 30 0ZM45.4639 18.5137C44.0909 17.1531 41.8743 17.1632 40.5137 18.5361L26.0332 33.1465L19.3633 27.041L19.2275 26.9229C17.8001 25.7434 15.6823 25.8785 14.418 27.2598C13.1537 28.6411 13.2061 30.7623 14.5068 32.0801L14.6367 32.2051L23.7891 40.582L26.2705 42.8525L28.6377 40.4639L45.4863 23.4639C46.8469 22.0909 46.8368 19.8743 45.4639 18.5137Z" fill="#E9E9E9"/>
</svg>
