<svg width="60" height="60" viewBox="0 0 60 60" fill="none" xmlns="http://www.w3.org/2000/svg">
<path d="M30 0C46.5685 0 60 13.4315 60 30C60 46.5685 46.5685 60 30 60C13.4315 60 0 46.5685 0 30C0 13.4315 13.4315 0 30 0ZM30 41C27.7909 41 26 42.7909 26 45C26 47.2091 27.7909 49 30 49C32.2091 49 34 47.2091 34 45C34 42.7909 32.2091 41 30 41ZM30 11C27.3055 11 25.1836 13.2985 25.3984 15.9844L26.7607 33.0098C26.8959 34.6985 28.3059 36 30 36C31.6941 36 33.1041 34.6985 33.2393 33.0098L34.6016 15.9844C34.8164 13.2985 32.6945 11 30 11Z" fill="#E9E9E9"/>
</svg>
