<svg width="72" height="72" viewBox="0 0 72 72" fill="none" xmlns="http://www.w3.org/2000/svg">
<g clip-path="url(#clip0_30_46)">
<path d="M12 20.444C15.0598 15.8395 19.4088 12.2506 24.4971 10.1314C29.5854 8.01213 35.1844 7.45764 40.5861 8.53803C45.9878 9.61841 50.9495 12.2852 54.8439 16.201C58.7383 20.1169 61.3905 25.106 62.4649 30.5375C63.5394 35.969 62.9879 41.5988 60.8803 46.7151C58.7727 51.8315 55.2035 56.2045 50.6242 59.2812C46.0448 62.3578 40.661 64 35.1535 64" stroke="#9935FF" stroke-width="14" stroke-linecap="round"/>
<path d="M5.94791 32.1676C4.4226 32.4474 3.01262 31.285 2.99642 29.7343L2.80031 10.9373C2.7781 8.81174 5.25021 7.62992 6.89034 8.98208L25.5766 24.3874C27.2168 25.7396 26.5281 28.3917 24.4373 28.7752L5.94791 32.1676Z" fill="#9935FF" stroke="#9935FF"/>
</g>
<defs>
<clipPath id="clip0_30_46">
<rect width="72" height="72" fill="white"/>
</clipPath>
</defs>
</svg>
